# xmcd
#
# Track frame offsets:
#	182
#	13655
#	24272
#	43992
#	63905
#	118907
#	137857
#	158642
#	174117
#	236642
#	265380
#	277457
#
# Disc length: 4082 seconds
#
# Revision: 0
# Processed by: cddbd v1.5.2PL0 Copyright (c) Steve Scherf et al.
# Submitted via: audiograbber 1.83.01
#
DISCID=ab0ff00c
DTITLE=MS® - Jugo De Hits 9.3
DYEAR=1995
DGENRE=Pop
TTITLE0=Jackson 5 - A B C
TTITLE1=Joe Tex - I Got Cha
TTITLE2=Chakachas - Jungle Fever
TTITLE3=Ohio Players - Fire
TTITLE4=Fred Wesley And The JB´s - Doing To Death
TTITLE5=Love Unlimited Orchestra - Satin Soul
TTITLE6=Kool and The Gang - Hollywood Swinging
TTITLE7=Lyn Collins - Rock Me Again and Again and Again and Again
TTITLE8=James Brown - Papa Don't Take No Mess
TTITLE9=Gloria Gaynor - I Never Can Say Goodbye
TTITLE10=5000 Volts - I'm On Fire
TTITLE11=Bar-Keys - Too Hot To Stop
EXTD=MS®
EXTT0=MS®
EXTT1=
EXTT2=
EXTT3=
EXTT4=
EXTT5=
EXTT6=
EXTT7=
EXTT8=
EXTT9=
EXTT10=
EXTT11=
PLAYORDER=
